<svg width="30" height="23" viewBox="0 0 30 23" fill="none" xmlns="http://www.w3.org/2000/svg">
<path d="M2.20703 10C1.3786 10 0.707031 10.6716 0.707031 11.5C0.707031 12.3284 1.3786 13 2.20703 13L2.20703 10ZM28.8536 12.5607C29.4394 11.9749 29.4394 11.0251 28.8536 10.4393L19.3077 0.893403C18.7219 0.307616 17.7722 0.307616 17.1864 0.893402C16.6006 1.47919 16.6006 2.42894 17.1864 3.01472L25.6716 11.5L17.1864 19.9853C16.6006 20.5711 16.6006 21.5208 17.1864 22.1066C17.7722 22.6924 18.7219 22.6924 19.3077 22.1066L28.8536 12.5607ZM2.20703 13L27.793 13L27.793 10L2.20703 10L2.20703 13Z" fill="#003B53"/>
</svg>
