<svg width="29" height="23" viewBox="0 0 29 23" fill="none" xmlns="http://www.w3.org/2000/svg">
<path d="M1.70703 10C0.878605 10 0.207031 10.6716 0.207031 11.5C0.207031 12.3284 0.878604 13 1.70703 13L1.70703 10ZM28.3536 12.5607C28.9394 11.9749 28.9394 11.0251 28.3536 10.4393L18.8077 0.893403C18.2219 0.307616 17.2722 0.307616 16.6864 0.893402C16.1006 1.47919 16.1006 2.42894 16.6864 3.01472L25.1716 11.5L16.6864 19.9853C16.1006 20.5711 16.1006 21.5208 16.6864 22.1066C17.2722 22.6924 18.2219 22.6924 18.8077 22.1066L28.3536 12.5607ZM1.70703 13L27.293 13L27.293 10L1.70703 10L1.70703 13Z" fill="white"/>
</svg>
