<svg width="24" height="29" viewBox="0 0 24 29" fill="none" xmlns="http://www.w3.org/2000/svg">
<path d="M13.5 27.293C13.5 28.1214 12.8284 28.793 12 28.793C11.1716 28.793 10.5 28.1214 10.5 27.293L13.5 27.293ZM10.9393 0.646372C11.5251 0.060585 12.4749 0.060585 13.0607 0.64637L22.6066 10.1923C23.1924 10.7781 23.1924 11.7278 22.6066 12.3136C22.0208 12.8994 21.0711 12.8994 20.4853 12.3136L12 3.82835L3.51471 12.3136C2.92893 12.8994 1.97918 12.8994 1.39339 12.3136C0.807607 11.7278 0.807606 10.7781 1.39339 10.1923L10.9393 0.646372ZM10.5 27.293L10.5 1.70703L13.5 1.70703L13.5 27.293L10.5 27.293Z" fill="#003B53"/>
</svg>
