<svg width="23" height="30" viewBox="0 0 23 30" fill="none" xmlns="http://www.w3.org/2000/svg">
<path d="M10 27.793C10 28.6214 10.6716 29.293 11.5 29.293C12.3284 29.293 13 28.6214 13 27.793L10 27.793ZM12.5607 1.14637C11.9749 0.560585 11.0251 0.560585 10.4393 1.14637L0.893402 10.6923C0.307615 11.2781 0.307615 12.2278 0.893401 12.8136C1.47919 13.3994 2.42894 13.3994 3.01472 12.8136L11.5 4.32835L19.9853 12.8136C20.5711 13.3994 21.5208 13.3994 22.1066 12.8136C22.6924 12.2278 22.6924 11.2781 22.1066 10.6923L12.5607 1.14637ZM13 27.793L13 2.20703L10 2.20703L10 27.793L13 27.793Z" fill="#003B53"/>
</svg>
