<svg width="22" height="18" viewBox="0 0 22 18" fill="none" xmlns="http://www.w3.org/2000/svg">
<path fill-rule="evenodd" clip-rule="evenodd" d="M7.39646 2.67603e-07H14.6035C15.7056 -9.9844e-06 16.5944 -1.83284e-05 17.3138 0.0597244C18.0547 0.121246 18.7049 0.251256 19.3049 0.562933C20.2181 1.03731 20.9627 1.78191 21.4371 2.69513C21.7487 3.29513 21.8788 3.94535 21.9403 4.68616C22 5.40556 22 6.29444 22 7.39649V10.6035C22 11.7056 22 12.5944 21.9403 13.3138C21.8788 14.0547 21.7487 14.7049 21.4371 15.3049C20.9627 16.2181 20.2181 16.9627 19.3049 17.4371C18.7049 17.7487 18.0547 17.8788 17.3138 17.9403C16.5944 18 15.7056 18 14.6035 18H7.39649C6.29444 18 5.40557 18 4.68616 17.9403C3.94535 17.8788 3.29513 17.7487 2.69513 17.4371C1.78191 16.9627 1.03731 16.2181 0.562933 15.3049C0.251256 14.7049 0.121246 14.0547 0.0597244 13.3138C-1.83284e-05 12.5944 -9.9844e-06 11.7056 2.67603e-07 10.6035V7.39646C-9.9844e-06 6.29442 -1.83284e-05 5.40556 0.0597244 4.68616C0.121246 3.94535 0.251256 3.29513 0.562933 2.69513C1.03731 1.78191 1.78191 1.03731 2.69513 0.562933C3.29513 0.251256 3.94535 0.121246 4.68616 0.0597244C5.40556 -1.83284e-05 6.29442 -9.9844e-06 7.39646 2.67603e-07ZM4.25274 2.1305C5.10138 2.32962 5.88918 2.7516 6.53017 3.36207L9.46897 6.16092C9.87538 6.54798 10.1374 6.7965 10.3523 6.97018C10.5575 7.13607 10.6541 7.17802 10.7075 7.19438C10.8982 7.25267 11.1018 7.25267 11.2925 7.19437C11.3459 7.17802 11.4425 7.13607 11.6477 6.97018C11.8626 6.7965 12.1246 6.54798 12.531 6.16092L15.4698 3.36207C16.1108 2.7516 16.8986 2.32962 17.7473 2.1305C17.5792 2.09823 17.3828 2.07234 17.1483 2.05286C16.5214 2.0008 15.7158 2 14.56 2H7.44C6.28423 2 5.47856 2.0008 4.85168 2.05286C4.61716 2.07234 4.42078 2.09823 4.25274 2.1305ZM19.8106 4H18.875C18.1207 4 17.3953 4.29015 16.8491 4.81035L13.8828 7.63545C13.5118 7.98883 13.1908 8.29455 12.9051 8.52551C12.6027 8.76996 12.276 8.98503 11.8774 9.10693C11.3055 9.28182 10.6945 9.28182 10.1226 9.10693C9.72403 8.98503 9.3973 8.76996 9.09492 8.52551C8.80922 8.29454 8.48823 7.98882 8.1172 7.63543L5.15086 4.81035C4.60466 4.29015 3.87928 4 3.125 4H2.18942C2.12859 4.21664 2.08303 4.48842 2.05286 4.85168C2.0008 5.47856 2 6.28423 2 7.44V10.56C2 11.7158 2.0008 12.5214 2.05286 13.1483C2.10393 13.7632 2.19909 14.116 2.33776 14.3829C2.62239 14.9309 3.06915 15.3776 3.61708 15.6622C3.88403 15.8009 4.23678 15.8961 4.85168 15.9471C5.47856 15.9992 6.28423 16 7.44 16H14.56C15.7158 16 16.5214 15.9992 17.1483 15.9471C17.7632 15.8961 18.116 15.8009 18.3829 15.6622C18.9309 15.3776 19.3776 14.9309 19.6622 14.3829C19.8009 14.116 19.8961 13.7632 19.9471 13.1483C19.9992 12.5214 20 11.7158 20 10.56V7.44C20 6.28423 19.9992 5.47856 19.9471 4.85168C19.917 4.48842 19.8714 4.21664 19.8106 4Z" fill="#003B53"/>
</svg>
