<svg width="35" height="35" viewBox="0 0 35 35" fill="none" xmlns="http://www.w3.org/2000/svg">
<rect width="35" height="35" rx="17.5" fill="#003B53"/>
<path d="M17.5027 8.89267C20.3084 8.89267 20.6377 8.90517 21.7467 8.9552C22.7722 9.00106 23.3267 9.17198 23.6977 9.31789C24.1896 9.50966 24.5398 9.73478 24.9067 10.1016C25.2735 10.4685 25.5028 10.8187 25.6904 11.3106C25.8321 11.6816 26.0072 12.2361 26.0531 13.2616C26.1031 14.3706 26.1156 14.6999 26.1156 17.5056C26.1156 20.3112 26.1031 20.6405 26.0531 21.7495C26.0072 22.775 25.8363 23.3295 25.6904 23.7005C25.4986 24.1924 25.2735 24.5426 24.9067 24.9095C24.5398 25.2763 24.1896 25.5056 23.6977 25.6932C23.3267 25.835 22.7722 26.0101 21.7467 26.0559C20.6377 26.1059 20.3084 26.1184 17.5027 26.1184C14.6971 26.1184 14.3677 26.1059 13.2588 26.0559C12.2333 26.0101 11.6788 25.8391 11.3078 25.6932C10.8159 25.5015 10.4657 25.2763 10.0988 24.9095C9.73196 24.5426 9.50267 24.1924 9.31507 23.7005C9.17333 23.3295 8.99823 22.775 8.95238 21.7495C8.90235 20.6405 8.88984 20.3112 8.88984 17.5056C8.88984 14.6999 8.90235 14.3706 8.95238 13.2616C8.99823 12.2361 9.16916 11.6816 9.31507 11.3106C9.50684 10.8187 9.73196 10.4685 10.0988 10.1016C10.4657 9.73478 10.8159 9.50549 11.3078 9.31789C11.6788 9.17615 12.2333 9.00106 13.2588 8.9552C14.3677 8.90101 14.7013 8.89267 17.5027 8.89267ZM17.5027 7C14.6512 7 14.2927 7.01251 13.1713 7.06253C12.054 7.11256 11.2911 7.29182 10.6241 7.55029C9.93206 7.8171 9.34842 8.17979 8.76478 8.76343C8.18113 9.34707 7.82261 9.93489 7.55163 10.6228C7.29316 11.2898 7.1139 12.0527 7.06388 13.1741C7.01385 14.2914 7.00134 14.6499 7.00134 17.5014C7.00134 20.3529 7.01385 20.7114 7.06388 21.8328C7.1139 22.9501 7.29316 23.713 7.55163 24.3842C7.81844 25.0762 8.18113 25.6599 8.76478 26.2435C9.34842 26.8272 9.93623 27.1857 10.6241 27.4567C11.2911 27.7151 12.054 27.8944 13.1754 27.9444C14.2969 27.9944 14.6512 28.0069 17.5069 28.0069C20.3626 28.0069 20.7169 27.9944 21.8384 27.9444C22.9556 27.8944 23.7185 27.7151 24.3897 27.4567C25.0818 27.1898 25.6654 26.8272 26.249 26.2435C26.8327 25.6599 27.1912 25.0721 27.4622 24.3842C27.7207 23.7172 27.8999 22.9543 27.9499 21.8328C28 20.7114 28.0125 20.3571 28.0125 17.5014C28.0125 14.6457 28 14.2914 27.9499 13.1699C27.8999 12.0527 27.7207 11.2898 27.4622 10.6186C27.1954 9.92655 26.8327 9.34291 26.249 8.75926C25.6654 8.17562 25.0776 7.8171 24.3897 7.54612C23.7227 7.28765 22.9598 7.10839 21.8384 7.05836C20.7128 7.01251 20.3542 7 17.5027 7Z" fill="white"/>
<path d="M17.5027 8.89267C20.3084 8.89267 20.6377 8.90517 21.7467 8.9552C22.7722 9.00106 23.3267 9.17198 23.6977 9.31789C24.1896 9.50966 24.5398 9.73478 24.9067 10.1016C25.2735 10.4685 25.5028 10.8187 25.6904 11.3106C25.8321 11.6816 26.0072 12.2361 26.0531 13.2616C26.1031 14.3706 26.1156 14.6999 26.1156 17.5056C26.1156 20.3112 26.1031 20.6405 26.0531 21.7495C26.0072 22.775 25.8363 23.3295 25.6904 23.7005C25.4986 24.1924 25.2735 24.5426 24.9067 24.9095C24.5398 25.2763 24.1896 25.5056 23.6977 25.6932C23.3267 25.835 22.7722 26.0101 21.7467 26.0559C20.6377 26.1059 20.3084 26.1184 17.5027 26.1184C14.6971 26.1184 14.3677 26.1059 13.2588 26.0559C12.2333 26.0101 11.6788 25.8391 11.3078 25.6932C10.8159 25.5015 10.4657 25.2763 10.0988 24.9095C9.73196 24.5426 9.50267 24.1924 9.31507 23.7005C9.17333 23.3295 8.99823 22.775 8.95238 21.7495C8.90235 20.6405 8.88984 20.3112 8.88984 17.5056C8.88984 14.6999 8.90235 14.3706 8.95238 13.2616C8.99823 12.2361 9.16916 11.6816 9.31507 11.3106C9.50684 10.8187 9.73196 10.4685 10.0988 10.1016C10.4657 9.73478 10.8159 9.50549 11.3078 9.31789C11.6788 9.17615 12.2333 9.00106 13.2588 8.9552C14.3677 8.90101 14.7013 8.89267 17.5027 8.89267Z" fill="white"/>
<path d="M17.5028 12.1108C14.5262 12.1108 12.1083 14.5246 12.1083 17.5054C12.1083 20.4861 14.5221 22.8999 17.5028 22.8999C20.4835 22.8999 22.8973 20.4861 22.8973 17.5054C22.8973 14.5246 20.4835 12.1108 17.5028 12.1108ZM17.5028 21.003C15.5684 21.003 14.0009 19.4355 14.0009 17.5012C14.0009 15.5668 15.5684 13.9993 17.5028 13.9993C19.4372 13.9993 21.0047 15.5668 21.0047 17.5012C21.0047 19.4355 19.4372 21.003 17.5028 21.003Z" fill="#003B53"/>
<path d="M23.11 13.1533C23.8053 13.1533 24.3689 12.5896 24.3689 11.8943C24.3689 11.1989 23.8053 10.6353 23.11 10.6353C22.4146 10.6353 21.851 11.1989 21.851 11.8943C21.851 12.5896 22.4146 13.1533 23.11 13.1533Z" fill="#003B53"/>
</svg>
