<svg width="35" height="35" viewBox="0 0 35 35" fill="none" xmlns="http://www.w3.org/2000/svg">
<rect width="35" height="35" rx="17.5" fill="#003B53"/>
<path d="M25.704 7.875H9.29602C8.91915 7.875 8.5577 8.02471 8.29121 8.29121C8.02471 8.5577 7.875 8.91915 7.875 9.29602V25.704C7.875 26.0809 8.02471 26.4423 8.29121 26.7088C8.5577 26.9753 8.91915 27.125 9.29602 27.125H25.704C26.0809 27.125 26.4423 26.9753 26.7088 26.7088C26.9753 26.4423 27.125 26.0809 27.125 25.704V9.29602C27.125 8.91915 26.9753 8.5577 26.7088 8.29121C26.4423 8.02471 26.0809 7.875 25.704 7.875ZM13.6126 24.2736H10.7184V15.0804H13.6126V24.2736ZM12.1635 13.8064C11.8352 13.8046 11.5148 13.7055 11.2427 13.5217C10.9707 13.338 10.7592 13.0777 10.6349 12.7739C10.5106 12.47 10.4791 12.1361 10.5444 11.8144C10.6096 11.4927 10.7688 11.1975 11.0016 10.9661C11.2345 10.7347 11.5307 10.5774 11.8529 10.5142C12.1751 10.451 12.5087 10.4847 12.8118 10.6109C13.1148 10.7371 13.3737 10.9503 13.5557 11.2235C13.7377 11.4968 13.8347 11.8178 13.8345 12.1461C13.8376 12.3659 13.7964 12.5841 13.7134 12.7876C13.6304 12.9911 13.5072 13.1759 13.3513 13.3308C13.1953 13.4858 13.0098 13.6077 12.8057 13.6894C12.6017 13.7711 12.3832 13.8109 12.1635 13.8064ZM24.2803 24.2816H21.3874V19.2592C21.3874 17.7781 20.7578 17.3209 19.945 17.3209C19.0868 17.3209 18.2446 17.9679 18.2446 19.2967V24.2816H15.3504V15.0871H18.1336V16.361H18.1711C18.4505 15.7956 19.429 14.8291 20.9222 14.8291C22.5371 14.8291 24.2816 15.7876 24.2816 18.5948L24.2803 24.2816Z" fill="white"/>
</svg>
