<svg width="14" height="23" viewBox="0 0 14 23" fill="none" xmlns="http://www.w3.org/2000/svg">
<path d="M8.00001 18.5C8.00001 19.0523 7.55229 19.5 7.00001 19.5C6.44772 19.5 6.00001 19.0523 6.00001 18.5C6.00001 17.9477 6.44772 17.5 7.00001 17.5C7.55229 17.5 8.00001 17.9477 8.00001 18.5Z" fill="#003B53"/>
<path fill-rule="evenodd" clip-rule="evenodd" d="M4.23417 0.500004L4.28281 0.500005C4.2904 0.500003 4.298 0.500002 4.30559 0.500007H9.69442C9.70202 0.500002 9.70961 0.500003 9.7172 0.500005L9.76584 0.500004C9.78979 0.5 9.81305 0.499997 9.83567 0.500007H10C10.0164 0.500007 10.0327 0.500402 10.0489 0.501183C10.1351 0.502426 10.2118 0.504959 10.2841 0.510107C12.2693 0.651448 13.8486 2.23075 13.9899 4.21593C14.0001 4.35862 14 4.51839 14 4.73416L14 16.712C14 17.5305 14 18.2061 13.9544 18.7561C13.9069 19.3274 13.805 19.8523 13.5497 20.3439C13.1702 21.0745 12.5745 21.6702 11.8439 22.0497C11.3523 22.305 10.8274 22.4069 10.2561 22.4544C9.7061 22.5 9.0306 22.5 8.21212 22.5H5.78793C4.96946 22.5 4.29391 22.5 3.74394 22.4544C3.17259 22.4069 2.64775 22.305 2.15611 22.0497C1.42554 21.6702 0.829855 21.0745 0.450353 20.3439C0.194969 19.8523 0.0931058 19.3274 0.0456576 18.7561C-1.74791e-05 18.2061 -6.62935e-06 17.5305 6.60288e-06 16.712L3.50344e-06 4.73417C-2.84443e-05 4.5184 -5.21e-05 4.35862 0.010107 4.21593C0.151448 2.23075 1.73075 0.651448 3.71593 0.510107C3.78824 0.504959 3.86493 0.502426 3.95107 0.501183C3.96729 0.500402 3.9836 0.500007 4.00001 0.500007H4.16434C4.18696 0.499997 4.21023 0.5 4.23417 0.500004ZM4.27151 2.50001C4.00219 2.50001 3.91996 2.50064 3.85797 2.50506C2.86538 2.57573 2.07573 3.36538 2.00506 4.35797C2.00064 4.41996 2.00001 4.50219 2.00001 4.77151V16.67C2.00001 17.541 2.00081 18.1331 2.0388 18.5906C2.07579 19.036 2.1428 19.2634 2.22518 19.422C2.41493 19.7872 2.71277 20.0851 3.07806 20.2748C3.23664 20.3572 3.46402 20.4242 3.90946 20.4612C4.36687 20.4992 4.95899 20.5 5.83001 20.5H8.17001C9.04103 20.5 9.63315 20.4992 10.0906 20.4612C10.536 20.4242 10.7634 20.3572 10.922 20.2748C11.2872 20.0851 11.5851 19.7872 11.7748 19.422C11.8572 19.2634 11.9242 19.036 11.9612 18.5906C11.9992 18.1331 12 17.541 12 16.67V4.77151C12 4.50219 11.9994 4.41996 11.995 4.35797C11.9243 3.36538 11.1346 2.57573 10.142 2.50506C10.0801 2.50064 9.99782 2.50001 9.72851 2.50001C9.66163 2.50001 9.65415 2.50017 9.6491 2.50037C9.5206 2.50524 9.39893 2.55943 9.30935 2.65168C9.30583 2.6553 9.3007 2.66075 9.25596 2.71046L8.76728 3.25343L8.75478 3.26722C8.74891 3.27362 8.73736 3.28609 8.72268 3.30087C8.69144 3.33231 8.63519 3.38538 8.55527 3.43802C8.45953 3.50108 8.3541 3.54803 8.24319 3.57701C8.15059 3.6012 8.07352 3.60751 8.02926 3.6097C8.00845 3.61073 7.99145 3.61096 7.98277 3.61104L7.96416 3.61112H6.03586L6.01724 3.61104C6.00856 3.61096 5.99157 3.61073 5.97076 3.6097C5.9265 3.60751 5.84942 3.6012 5.75682 3.57701C5.64591 3.54803 5.54049 3.50108 5.44475 3.43802C5.36482 3.38538 5.30857 3.33231 5.27733 3.30087C5.26265 3.28609 5.25111 3.27362 5.24524 3.26722L5.23273 3.25343L4.74405 2.71046C4.69932 2.66075 4.69418 2.6553 4.69066 2.65168C4.60108 2.55943 4.47941 2.50524 4.35092 2.50037C4.34587 2.50017 4.33838 2.50001 4.27151 2.50001Z" fill="#003B53"/>
</svg>
