<svg width="121" height="51" viewBox="0 0 121 51" fill="none" xmlns="http://www.w3.org/2000/svg">
<path d="M78.9297 22.7022L78.732 22.7477C78.6105 22.763 78.4279 22.7782 78.2455 22.7782C77.4397 22.7782 76.8466 22.5048 76.4361 22.2161C76.1928 22.0491 75.9799 21.8515 75.8127 21.6388C76.3601 21.3653 76.8466 21.0008 77.2876 20.5603C78.0174 19.7855 78.7777 18.6157 78.7777 16.8535C78.7777 13.8153 76.2841 11.3086 72.9999 11.3086C69.7157 11.3086 67.2222 13.8152 67.2222 16.8535C67.2222 19.8918 69.7157 22.3985 72.9999 22.3985C73.228 22.3985 73.4105 22.3833 73.5473 22.368L73.7601 22.3225C74.0187 22.7782 74.353 23.1884 74.7637 23.5378C75.4783 24.1454 76.5729 24.7531 78.1694 24.7531C78.3975 24.7531 78.58 24.738 78.7168 24.7227L78.9297 24.677V22.7022ZM69.5788 16.8534C69.5788 14.9545 71.0994 13.4354 72.9999 13.4354C74.9004 13.4354 76.4209 14.9546 76.4209 16.8534C76.4209 18.7525 74.9004 20.2715 72.9999 20.2715C71.0994 20.2715 69.5788 18.7524 69.5788 16.8534ZM121 22.7022L120.802 22.7477C120.681 22.763 120.498 22.7782 120.316 22.7782C119.51 22.7782 118.917 22.5048 118.506 22.2161C118.263 22.0491 118.05 21.8515 117.883 21.6388C118.43 21.3653 118.917 21.0008 119.358 20.5603C120.088 19.7855 120.848 18.6157 120.848 16.8535C120.848 13.8153 118.354 11.3086 115.07 11.3086C111.786 11.3086 109.293 13.8152 109.293 16.8535C109.293 19.8918 111.786 22.3985 115.07 22.3985C115.298 22.3985 115.481 22.3833 115.618 22.368L115.83 22.3225C116.089 22.7782 116.423 23.1884 116.834 23.5378C117.549 24.1454 118.643 24.7531 120.24 24.7531C120.468 24.7531 120.65 24.738 120.787 24.7227L121 24.677V22.7022ZM111.649 16.8534C111.649 14.9545 113.17 13.4354 115.07 13.4354C116.971 13.4354 118.491 14.9546 118.491 16.8534C118.491 18.7525 116.971 20.2715 115.07 20.2715C113.17 20.2715 111.649 18.7524 111.649 16.8534ZM83.0044 17.6889L84.2663 14.1949H84.3271L85.589 17.6889H83.0043H83.0044ZM78.8992 22.1705H81.3318L82.2442 19.7399H86.3494L87.2616 22.1705H89.6943L85.5891 11.5365H83.0044L78.8992 22.1705ZM89.8159 22.1705H98.2543V20.0437H92.7046L98.1023 13.6632V11.5365H90.0439V13.6632H95.2134L89.8159 20.0437V22.1705ZM102.481 17.6889L103.743 14.1949H103.804L105.066 17.6889H102.481H102.481ZM98.3758 22.1705H100.808L101.721 19.7399H105.826L106.738 22.1705H109.171L105.066 11.5365H102.481L98.3758 22.1705Z" fill="#003B53"/>
<path d="M70.2498 37.4506H72.5208V28.4876H75.5484V26.2469H67.2222V28.4876H70.2498V37.4506ZM76.5778 37.4506H78.8485V33.7694H80.968L82.8603 37.4506H85.3582L83.1631 33.2891C83.5112 33.1291 83.8141 32.9051 84.0714 32.617C84.5408 32.1208 84.9797 31.2886 84.9797 30.0082C84.9797 27.7675 83.5416 26.2469 81.2707 26.2469H76.5778V37.4506ZM78.8485 31.5286V28.4876H81.1951C82.0429 28.4876 82.6332 29.1118 82.6332 30.0082C82.6332 30.9045 82.0429 31.5287 81.1951 31.5287H78.8485V31.5286ZM89.4153 32.729L90.6717 29.0478H90.7322L91.9887 32.729H89.4152H89.4153ZM85.3278 37.4506H87.75L88.6583 34.8898H92.7458L93.6541 37.4506H96.0763L91.9888 26.2469H89.4153L85.3278 37.4506ZM96.8785 37.4506H100.739C103.994 37.4506 106.34 34.9698 106.34 31.8487C106.34 28.7277 103.994 26.2469 100.739 26.2469H96.8785V37.4506ZM99.1493 35.2099V28.4876H100.739C102.631 28.4876 103.994 29.928 103.994 31.8487C103.994 33.7694 102.631 35.2099 100.739 35.2099H99.1493ZM107.748 37.4506H115.772V35.2099H110.019V32.809H114.409V30.6483H110.019V28.4876H115.62V26.2469H107.748V37.4506Z" fill="#003B53"/>
<path d="M67.9691 49.9179H70.2386V45.5438H74.7775V49.9179H77.0469V39.1748H74.7775V43.3952H70.2386V39.1748H67.9691V49.9179ZM80.799 44.5463C80.799 42.6279 82.3121 41.0932 84.2033 41.0932C86.0944 41.0932 87.6074 42.628 87.6074 44.5463C87.6074 46.4648 86.0944 47.9995 84.2033 47.9995C82.3121 47.9995 80.799 46.4647 80.799 44.5463ZM78.454 44.5463C78.454 47.6158 80.9352 50.1481 84.2033 50.1481C87.4713 50.1481 89.9526 47.6159 89.9526 44.5463C89.9526 41.4769 87.4713 38.9445 84.2033 38.9445C80.9352 38.9445 78.454 41.4768 78.454 44.5463ZM91.2839 45.4671C91.2839 48.2297 93.175 50.148 95.8985 50.148C98.6218 50.148 100.513 48.2296 100.513 45.4671V39.1748H98.2435V45.4671C98.2435 47.0019 97.2753 47.9995 95.8985 47.9995C94.5216 47.9995 93.5533 47.0019 93.5533 45.4671V39.1748H91.2839V45.4671ZM101.466 48.4599C101.738 48.7822 102.071 49.0584 102.48 49.304C103.161 49.7336 104.174 50.148 105.551 50.148C108.048 50.148 109.561 48.6133 109.561 46.8484C109.561 43.1037 104.265 43.917 104.265 42.0906C104.265 41.4768 104.704 41.0163 105.854 41.0163C106.459 41.0163 106.943 41.2466 107.291 41.4767C107.488 41.6149 107.654 41.7683 107.821 41.9371L109.334 40.4024C109.076 40.1414 108.789 39.8958 108.441 39.681C107.851 39.3127 106.943 38.9444 105.778 38.9444C103.357 38.9444 101.92 40.4025 101.92 42.0906C101.92 45.8354 107.215 45.022 107.215 46.8484C107.215 47.5391 106.686 48.0762 105.475 48.0762C104.674 48.0762 104.053 47.7999 103.63 47.5083C103.372 47.3395 103.161 47.14 102.979 46.9251L101.466 48.4599ZM110.74 49.9179H118.759V47.7693H113.01V45.4671H117.398V43.3952H113.01V41.3234H118.608V39.1748H110.74V49.9179Z" fill="#003B53"/>
<path fill-rule="evenodd" clip-rule="evenodd" d="M29.7949 0.851852C32.2975 0.936602 34.6275 1.32465 36.7853 1.95158C36.8853 1.98384 36.9851 2.01681 37.0845 2.05029L35.5346 7.81369C33.8354 8.62812 31.8677 9.13814 29.7948 9.26678V0.851954L29.7949 0.851852ZM34.8677 10.2934L29.7949 29.1553V11.3081C31.4896 11.2108 33.2259 10.8765 34.8677 10.2934ZM42.1508 4.15306C43.303 4.77412 44.3894 5.46436 45.4101 6.20799L31.8019 29.6911L37.3155 9.18972C39.139 8.17019 40.7207 6.77839 41.8194 4.99368C41.9792 4.73407 42.091 4.44938 42.1507 4.15316L42.1508 4.15306ZM38.1324 6.15237L39.0351 2.79524C39.3069 2.91164 39.5766 3.0328 39.8445 3.15851C40.0336 3.24751 40.1547 3.43723 40.1547 3.64567C40.1547 3.74529 40.127 3.84278 40.0748 3.92763C39.5705 4.74702 38.9124 5.49358 38.1325 6.15237H38.1324ZM47.0601 7.50089C48.9042 9.05349 50.5 10.7733 51.8519 12.543L33.6012 30.7259L47.0601 7.50089ZM53.0743 14.2526C54.3949 16.2287 55.4183 18.2191 56.1476 20.0657L35.0703 32.1896L53.0743 14.2526ZM56.8393 22.0582C57.2885 23.5673 57.5123 24.9197 57.5123 26.0072V28.2687L36.1092 33.9822L56.8393 22.0582ZM57.5123 30.4116V35.9818H36.6469L57.5123 30.4116ZM57.5123 38.0516V43.6219L36.6469 38.0516H57.5123ZM57.5123 45.765V50.1481H53.6626L36.6468 40.3606V40.1949L57.5123 45.765ZM49.5072 50.1481H43.4055L36.6469 43.4147V42.7508L49.5073 50.1481H49.5072ZM40.4673 50.1481H37.5654L36.6468 48.5632V46.3419L40.4673 50.1481ZM20.8655 40.1949V40.3606L3.84975 50.1481H0V45.765L20.8655 40.1949ZM20.8655 42.7507V43.4146L14.1069 50.148H8.00536L20.8656 42.7507H20.8655ZM20.8655 46.3418V48.5631L19.947 50.148H17.045L20.8655 46.3418ZM0 43.6218V38.0515H20.8654L0 43.6218ZM0 35.9817V30.4115L20.8654 35.9817H0ZM0 28.2686V26.0071C0 24.9196 0.224133 23.567 0.673009 22.0581L21.4032 33.9821L0 28.2686ZM1.3647 20.0656C2.09374 18.219 3.11787 16.2286 4.438 14.2525L22.4421 32.1895L1.3647 20.0656ZM5.66048 12.543C7.01219 10.7733 8.60853 9.05359 10.4522 7.50089L23.9111 30.7259L5.66048 12.543ZM12.1022 6.20789C13.1229 5.46415 14.2096 4.77402 15.3623 4.15286C15.4215 4.44635 15.5312 4.72881 15.6894 4.9863C16.7881 6.77525 18.3716 8.16948 20.1971 9.19053L25.7104 29.6907L12.1022 6.20779V6.20789ZM18.4772 2.79544L19.3797 6.15176C18.599 5.49187 17.94 4.74368 17.4352 3.92227C17.3845 3.83752 17.3579 3.74053 17.3579 3.64193C17.3579 3.59116 17.3651 3.54039 17.3789 3.49144C17.4226 3.3453 17.527 3.22404 17.6659 3.15982C17.9345 3.03361 18.2048 2.91245 18.4771 2.79554L18.4772 2.79544ZM20.7165 1.95451C22.8768 1.32526 25.2107 0.936704 27.7174 0.851852V9.26688C25.6447 9.13854 23.6771 8.62853 21.9779 7.81399L20.4275 2.04998C20.5236 2.01772 20.6201 1.98576 20.7164 1.95451H20.7165ZM27.7174 11.3083V29.1552L22.6449 10.2941C24.2863 10.8771 26.0228 11.2113 27.7174 11.3083Z" fill="#003B53"/>
<path fill-rule="evenodd" clip-rule="evenodd" d="M28.7561 0.851852C31.9797 0.851852 34.9286 1.3267 37.6089 2.14702C38.4263 2.42463 39.2305 2.7406 40.0182 3.09474C40.2103 3.18131 40.3333 3.36585 40.3333 3.5686C40.3333 3.6655 40.3051 3.76033 40.2521 3.84286C38.2122 7.01684 33.6954 9.0679 28.7547 9.0679C23.8141 9.0679 19.2974 7.01684 17.2575 3.83765C17.2061 3.75521 17.179 3.66087 17.179 3.56496C17.179 3.51558 17.1863 3.46619 17.2003 3.41858C17.2447 3.27643 17.3507 3.15848 17.4919 3.09602C18.2787 2.74198 19.082 2.426 19.8986 2.1486C22.5802 1.32729 25.5306 0.851852 28.7561 0.851852Z" fill="#003B53"/>
</svg>
