<svg width="121" height="50" viewBox="0 0 121 50" fill="none" xmlns="http://www.w3.org/2000/svg">
<path d="M78.9297 22.2021L78.732 22.2477C78.6105 22.2629 78.4279 22.2781 78.2455 22.2781C77.4397 22.2781 76.8466 22.0047 76.4361 21.716C76.1928 21.549 75.9799 21.3515 75.8127 21.1388C76.3601 20.8653 76.8466 20.5007 77.2876 20.0602C78.0174 19.2854 78.7777 18.1157 78.7777 16.3535C78.7777 13.3153 76.2841 10.8086 72.9999 10.8086C69.7157 10.8086 67.2222 13.3152 67.2222 16.3535C67.2222 19.3918 69.7157 21.8985 72.9999 21.8985C73.228 21.8985 73.4105 21.8832 73.5473 21.868L73.7601 21.8224C74.0187 22.2781 74.353 22.6884 74.7637 23.0377C75.4783 23.6453 76.5729 24.253 78.1694 24.253C78.3975 24.253 78.58 24.2379 78.7168 24.2227L78.9297 24.177V22.2021ZM69.5788 16.3534C69.5788 14.4544 71.0994 12.9354 72.9999 12.9354C74.9004 12.9354 76.4209 14.4545 76.4209 16.3534C76.4209 18.2524 74.9004 19.7715 72.9999 19.7715C71.0994 19.7715 69.5788 18.2523 69.5788 16.3534ZM121 22.2021L120.802 22.2477C120.681 22.2629 120.498 22.2781 120.316 22.2781C119.51 22.2781 118.917 22.0047 118.506 21.716C118.263 21.549 118.05 21.3515 117.883 21.1388C118.43 20.8653 118.917 20.5007 119.358 20.0602C120.088 19.2854 120.848 18.1157 120.848 16.3535C120.848 13.3153 118.354 10.8086 115.07 10.8086C111.786 10.8086 109.293 13.3152 109.293 16.3535C109.293 19.3918 111.786 21.8985 115.07 21.8985C115.298 21.8985 115.481 21.8832 115.618 21.868L115.83 21.8224C116.089 22.2781 116.423 22.6884 116.834 23.0377C117.549 23.6453 118.643 24.253 120.24 24.253C120.468 24.253 120.65 24.2379 120.787 24.2227L121 24.177V22.2021ZM111.649 16.3534C111.649 14.4544 113.17 12.9354 115.07 12.9354C116.971 12.9354 118.491 14.4545 118.491 16.3534C118.491 18.2524 116.971 19.7715 115.07 19.7715C113.17 19.7715 111.649 18.2523 111.649 16.3534ZM83.0044 17.1889L84.2663 13.6948H84.3271L85.589 17.1889H83.0043H83.0044ZM78.8992 21.6704H81.3318L82.2442 19.2398H86.3494L87.2616 21.6704H89.6943L85.5891 11.0364H83.0044L78.8992 21.6704ZM89.8159 21.6704H98.2543V19.5437H92.7046L98.1023 13.1632V11.0364H90.0439V13.1632H95.2134L89.8159 19.5437V21.6704ZM102.481 17.1889L103.743 13.6948H103.804L105.066 17.1889H102.481H102.481ZM98.3758 21.6704H100.808L101.721 19.2398H105.826L106.738 21.6704H109.171L105.066 11.0364H102.481L98.3758 21.6704Z" fill="white"/>
<path d="M70.2498 36.9508H72.5208V27.9878H75.5484V25.7471H67.2222V27.9878H70.2498V36.9508ZM76.5778 36.9508H78.8485V33.2695H80.968L82.8603 36.9508H85.3582L83.1631 32.7893C83.5112 32.6293 83.8141 32.4052 84.0714 32.1172C84.5408 31.621 84.9797 30.7887 84.9797 29.5083C84.9797 27.2676 83.5416 25.7471 81.2707 25.7471H76.5778V36.9508ZM78.8485 31.0287V27.9878H81.1951C82.0429 27.9878 82.6332 28.612 82.6332 29.5083C82.6332 30.4046 82.0429 31.0288 81.1951 31.0288H78.8485V31.0287ZM89.4153 32.2291L90.6717 28.5479H90.7322L91.9887 32.2291H89.4152H89.4153ZM85.3278 36.9508H87.75L88.6583 34.3899H92.7458L93.6541 36.9508H96.0763L91.9888 25.7471H89.4153L85.3278 36.9508ZM96.8785 36.9508H100.739C103.994 36.9508 106.34 34.47 106.34 31.3489C106.34 28.2279 103.994 25.7471 100.739 25.7471H96.8785V36.9508ZM99.1493 34.7101V27.9878H100.739C102.631 27.9878 103.994 29.4282 103.994 31.3489C103.994 33.2695 102.631 34.7101 100.739 34.7101H99.1493ZM107.748 36.9508H115.772V34.7101H110.019V32.3092H114.409V30.1485H110.019V27.9878H115.62V25.7471H107.748V36.9508Z" fill="white"/>
<path d="M67.9691 49.4178H70.2386V45.0437H74.7775V49.4178H77.0469V38.6747H74.7775V42.8951H70.2386V38.6747H67.9691V49.4178ZM80.799 44.0462C80.799 42.1278 82.3121 40.5931 84.2033 40.5931C86.0944 40.5931 87.6074 42.1279 87.6074 44.0462C87.6074 45.9647 86.0944 47.4994 84.2033 47.4994C82.3121 47.4994 80.799 45.9646 80.799 44.0462ZM78.454 44.0462C78.454 47.1157 80.9352 49.648 84.2033 49.648C87.4713 49.648 89.9526 47.1158 89.9526 44.0462C89.9526 40.9768 87.4713 38.4444 84.2033 38.4444C80.9352 38.4444 78.454 40.9767 78.454 44.0462ZM91.2839 44.967C91.2839 47.7296 93.175 49.6479 95.8985 49.6479C98.6218 49.6479 100.513 47.7295 100.513 44.967V38.6747H98.2435V44.967C98.2435 46.5018 97.2753 47.4994 95.8985 47.4994C94.5216 47.4994 93.5533 46.5018 93.5533 44.967V38.6747H91.2839V44.967ZM101.466 47.9598C101.738 48.2821 102.071 48.5583 102.48 48.8039C103.161 49.2335 104.174 49.6479 105.551 49.6479C108.048 49.6479 109.561 48.1132 109.561 46.3483C109.561 42.6035 104.265 43.4169 104.265 41.5905C104.265 40.9767 104.704 40.5162 105.854 40.5162C106.459 40.5162 106.943 40.7464 107.291 40.9766C107.488 41.1148 107.654 41.2682 107.821 41.437L109.334 39.9023C109.076 39.6413 108.789 39.3957 108.441 39.1809C107.851 38.8126 106.943 38.4443 105.778 38.4443C103.357 38.4443 101.92 39.9024 101.92 41.5905C101.92 45.3353 107.215 44.5219 107.215 46.3483C107.215 47.039 106.686 47.5761 105.475 47.5761C104.674 47.5761 104.053 47.2998 103.63 47.0082C103.372 46.8394 103.161 46.6399 102.979 46.425L101.466 47.9598ZM110.74 49.4178H118.759V47.2692H113.01V44.967H117.398V42.8951H113.01V40.8233H118.608V38.6747H110.74V49.4178Z" fill="white"/>
<path fill-rule="evenodd" clip-rule="evenodd" d="M29.7949 0.351562C32.2975 0.436313 34.6275 0.824362 36.7853 1.45129C36.8853 1.48355 36.9851 1.51652 37.0845 1.55L35.5346 7.3134C33.8354 8.12783 31.8677 8.63785 29.7948 8.76649V0.351664L29.7949 0.351562ZM34.8677 9.7931L29.7949 28.655V10.8078C31.4896 10.7105 33.2259 10.3762 34.8677 9.7931ZM42.1508 3.65277C43.303 4.27383 44.3894 4.96407 45.4101 5.7077L31.8019 29.1908L37.3155 8.68943C39.139 7.6699 40.7207 6.2781 41.8194 4.49339C41.9792 4.23378 42.091 3.94909 42.1507 3.65287L42.1508 3.65277ZM38.1324 5.65208L39.0351 2.29495C39.3069 2.41135 39.5766 2.53251 39.8445 2.65822C40.0336 2.74722 40.1547 2.93694 40.1547 3.14538C40.1547 3.245 40.127 3.34249 40.0748 3.42734C39.5705 4.24673 38.9124 4.99329 38.1325 5.65208H38.1324ZM47.0601 7.0006C48.9042 8.5532 50.5 10.273 51.8519 12.0427L33.6012 30.2256L47.0601 7.0006ZM53.0743 13.7523C54.3949 15.7284 55.4183 17.7188 56.1476 19.5654L35.0703 31.6893L53.0743 13.7523ZM56.8393 21.5579C57.2885 23.067 57.5123 24.4195 57.5123 25.5069V27.7684L36.1092 33.4819L56.8393 21.5579ZM57.5123 29.9113V35.4816H36.6469L57.5123 29.9113ZM57.5123 37.5514V43.1216L36.6469 37.5514H57.5123ZM57.5123 45.2647V49.6479H53.6626L36.6468 39.8603V39.6946L57.5123 45.2647ZM49.5072 49.6479H43.4055L36.6469 42.9144V42.2505L49.5073 49.6479H49.5072ZM40.4673 49.6479H37.5654L36.6468 48.0629V45.8416L40.4673 49.6479ZM20.8655 39.6946V39.8603L3.84975 49.6479H0V45.2647L20.8655 39.6946ZM20.8655 42.2504V42.9143L14.1069 49.6478H8.00536L20.8656 42.2504H20.8655ZM20.8655 45.8415V48.0628L19.947 49.6478H17.045L20.8655 45.8415ZM0 43.1215V37.5513H20.8654L0 43.1215ZM0 35.4815V29.9112L20.8654 35.4815H0ZM0 27.7683V25.5068C0 24.4194 0.224133 23.0667 0.673009 21.5578L21.4032 33.4818L0 27.7683ZM1.3647 19.5653C2.09374 17.7187 3.11787 15.7283 4.438 13.7522L22.4421 31.6892L1.3647 19.5653ZM5.66048 12.0427C7.01219 10.273 8.60853 8.5533 10.4522 7.0006L23.9111 30.2256L5.66048 12.0427ZM12.1022 5.7076C13.1229 4.96386 14.2096 4.27373 15.3623 3.65257C15.4215 3.94606 15.5312 4.22852 15.6894 4.48601C16.7881 6.27496 18.3716 7.66919 20.1971 8.69024L25.7104 29.1904L12.1022 5.7075V5.7076ZM18.4772 2.29515L19.3797 5.65147C18.599 4.99158 17.94 4.24339 17.4352 3.42198C17.3845 3.33723 17.3579 3.24024 17.3579 3.14164C17.3579 3.09087 17.3651 3.0401 17.3789 2.99115C17.4226 2.84501 17.527 2.72375 17.6659 2.65953C17.9345 2.53332 18.2048 2.41216 18.4771 2.29525L18.4772 2.29515ZM20.7165 1.45422C22.8768 0.824969 25.2107 0.436414 27.7174 0.351563V8.76659C25.6447 8.63825 23.6771 8.12824 21.9779 7.3137L20.4275 1.54969C20.5236 1.51743 20.6201 1.48547 20.7164 1.45422H20.7165ZM27.7174 10.808V28.6549L22.6449 9.79381C24.2863 10.3768 26.0228 10.711 27.7174 10.808Z" fill="white"/>
<path fill-rule="evenodd" clip-rule="evenodd" d="M28.7561 0.351562C31.9797 0.351562 34.9286 0.826405 37.6089 1.64673C38.4263 1.92434 39.2305 2.24031 40.0182 2.59445C40.2103 2.68102 40.3333 2.86556 40.3333 3.06831C40.3333 3.16521 40.3051 3.26004 40.2521 3.34257C38.2122 6.51655 33.6954 8.56761 28.7547 8.56761C23.8141 8.56761 19.2974 6.51655 17.2575 3.33736C17.2061 3.25492 17.179 3.16058 17.179 3.06467C17.179 3.01529 17.1863 2.9659 17.2003 2.91829C17.2447 2.77614 17.3507 2.65819 17.4919 2.59573C18.2787 2.24169 19.082 1.92571 19.8986 1.64831C22.5802 0.826995 25.5306 0.351562 28.7561 0.351562Z" fill="white"/>
</svg>
