<svg width="35" height="35" viewBox="0 0 35 35" fill="none" xmlns="http://www.w3.org/2000/svg">
<rect width="35" height="35" rx="17.5" fill="#003B53"/>
<path fill-rule="evenodd" clip-rule="evenodd" d="M7.92173 17.3154C13.0233 15.0927 16.4252 13.6274 18.1273 12.9194C22.9873 10.898 23.9971 10.5469 24.6553 10.5353C24.8001 10.5327 25.1238 10.5686 25.3335 10.7387C25.5105 10.8824 25.5592 11.0765 25.5825 11.2127C25.6058 11.3489 25.6349 11.6591 25.6118 11.9016C25.3484 14.6687 24.2089 21.3839 23.6291 24.4832C23.3838 25.7946 22.9008 26.2343 22.4332 26.2773C21.4169 26.3708 20.6452 25.6057 19.6609 24.9605C18.1207 23.9509 17.2506 23.3224 15.7555 22.3371C14.0277 21.1986 15.1478 20.5728 16.1324 19.55C16.3901 19.2824 20.8678 15.2096 20.9544 14.8402C20.9653 14.794 20.9753 14.6217 20.873 14.5308C20.7707 14.4398 20.6197 14.4709 20.5107 14.4957C20.3562 14.5307 17.8957 16.157 13.1291 19.3746C12.4307 19.8542 11.7981 20.0879 11.2313 20.0756C10.6064 20.0621 9.40448 19.7223 8.51096 19.4319C7.41502 19.0756 6.54399 18.8873 6.61984 18.2823C6.65934 17.9671 7.09331 17.6449 7.92173 17.3154Z" fill="white"/>
</svg>
